<?xml version="1.0" encoding="UTF-8" standalone="no"?>
<!DOCTYPE svg PUBLIC "-//W3C//DTD SVG 1.1//EN"
 "http://www.w3.org/Graphics/SVG/1.1/DTD/svg11.dtd">
<!-- Generated by graphviz version 2.43.0 (0)
 -->
<!-- Title: %3 Pages: 1 -->
<svg width="864pt" height="92pt"
 viewBox="0.00 0.00 864.00 91.94" xmlns="http://www.w3.org/2000/svg" xmlns:xlink="http://www.w3.org/1999/xlink">
<g id="graph0" class="graph" transform="scale(0.25 0.25) rotate(0) translate(4 362.39)">
<title>%3</title>
<polygon fill="white" stroke="transparent" points="-4,4 -4,-362.39 3439,-362.39 3439,4 -4,4"/>
<text text-anchor="middle" x="1717.5" y="-27.2" font-family="Arial Bold" font-size="16.00">L&#45;Layer Neural Network: [3, 4, 1]</text>
<text text-anchor="middle" x="1717.5" y="-9.2" font-family="Arial Bold" font-size="16.00">Architecture: [LINEAR→RELU]×1 → LINEAR→SIGMOID</text>
<g id="clust1" class="cluster">
<title>cluster_forward</title>
<polygon fill="none" stroke="blue" stroke-dasharray="5,2" points="8,-166.39 8,-350.39 1412,-350.39 1412,-166.39 8,-166.39"/>
<text text-anchor="middle" x="710" y="-335.19" font-family="Arial Bold" font-size="14.00">FORWARD PROPAGATION</text>
</g>
<g id="clust2" class="cluster">
<title>cluster_backward</title>
<polygon fill="none" stroke="red" stroke-dasharray="5,2" points="1487,-169.39 1487,-262.39 3011,-262.39 3011,-169.39 1487,-169.39"/>
<text text-anchor="middle" x="2249" y="-247.19" font-family="Arial Bold" font-size="14.00">BACKWARD PROPAGATION</text>
</g>
<g id="clust3" class="cluster">
<title>cluster_update</title>
<polygon fill="none" stroke="green" stroke-dasharray="5,2" points="3149,-182.39 3149,-315.39 3435,-315.39 3435,-182.39 3149,-182.39"/>
<text text-anchor="middle" x="3292" y="-300.19" font-family="Arial Bold" font-size="14.00">PARAMETER UPDATE (Gradient Descent)</text>
</g>
<!-- X -->
<g id="node1" class="node">
<title>X</title>
<path fill="#e8f4f8" stroke="black" d="M60,-295.89C60,-295.89 28,-295.89 28,-295.89 22,-295.89 16,-289.89 16,-283.89 16,-283.89 16,-254.89 16,-254.89 16,-248.89 22,-242.89 28,-242.89 28,-242.89 60,-242.89 60,-242.89 66,-242.89 72,-248.89 72,-254.89 72,-254.89 72,-283.89 72,-283.89 72,-289.89 66,-295.89 60,-295.89"/>
<text text-anchor="middle" x="44" y="-280.69" font-family="Arial" font-size="14.00">X</text>
<text text-anchor="middle" x="44" y="-265.69" font-family="Arial" font-size="14.00">(Input)</text>
<text text-anchor="middle" x="44" y="-250.69" font-family="Arial" font-size="14.00">3×m</text>
</g>
<!-- A0 -->
<g id="node2" class="node">
<title>A0</title>
<path fill="#e8f4f8" stroke="black" d="M167.5,-288.39C167.5,-288.39 126.5,-288.39 126.5,-288.39 120.5,-288.39 114.5,-282.39 114.5,-276.39 114.5,-276.39 114.5,-262.39 114.5,-262.39 114.5,-256.39 120.5,-250.39 126.5,-250.39 126.5,-250.39 167.5,-250.39 167.5,-250.39 173.5,-250.39 179.5,-256.39 179.5,-262.39 179.5,-262.39 179.5,-276.39 179.5,-276.39 179.5,-282.39 173.5,-288.39 167.5,-288.39"/>
<text text-anchor="middle" x="147" y="-273.19" font-family="Arial" font-size="14.00">A[0] = X</text>
<text text-anchor="middle" x="147" y="-258.19" font-family="Arial" font-size="14.00">3×m</text>
</g>
<!-- X&#45;&gt;A0 -->
<g id="edge1" class="edge">
<title>X&#45;&gt;A0</title>
<path fill="none" stroke="black" stroke-dasharray="5,2" d="M72.07,-269.39C81.9,-269.39 93.25,-269.39 104.06,-269.39"/>
<polygon fill="black" stroke="black" points="104.2,-272.89 114.2,-269.39 104.2,-265.89 104.2,-272.89"/>
</g>
<!-- Z1 -->
<g id="node3" class="node">
<title>Z1</title>
<path fill="#b3d9ff" stroke="black" d="M415,-231.39C415,-231.39 288,-231.39 288,-231.39 282,-231.39 276,-225.39 276,-219.39 276,-219.39 276,-205.39 276,-205.39 276,-199.39 282,-193.39 288,-193.39 288,-193.39 415,-193.39 415,-193.39 421,-193.39 427,-199.39 427,-205.39 427,-205.39 427,-219.39 427,-219.39 427,-225.39 421,-231.39 415,-231.39"/>
<text text-anchor="middle" x="351.5" y="-216.19" font-family="Arial" font-size="14.00">Z[1] = W[1]·A[0] + b[1]</text>
<text text-anchor="middle" x="351.5" y="-201.19" font-family="Arial" font-size="14.00">(4×m)</text>
</g>
<!-- A0&#45;&gt;Z1 -->
<g id="edge2" class="edge">
<title>A0&#45;&gt;Z1</title>
<path fill="none" stroke="black" d="M179.64,-260.48C204.54,-253.47 240.33,-243.4 272.72,-234.28"/>
<polygon fill="black" stroke="black" points="273.97,-237.56 282.65,-231.48 272.07,-230.82 273.97,-237.56"/>
<text text-anchor="middle" x="230.5" y="-256.19" font-family="Times,serif" font-size="14.00">matmul</text>
</g>
<!-- A1 -->
<g id="node5" class="node">
<title>A1</title>
<path fill="#ffe5b3" stroke="black" d="M614,-247.89C614,-247.89 515,-247.89 515,-247.89 509,-247.89 503,-241.89 503,-235.89 503,-235.89 503,-206.89 503,-206.89 503,-200.89 509,-194.89 515,-194.89 515,-194.89 614,-194.89 614,-194.89 620,-194.89 626,-200.89 626,-206.89 626,-206.89 626,-235.89 626,-235.89 626,-241.89 620,-247.89 614,-247.89"/>
<text text-anchor="middle" x="564.5" y="-232.69" font-family="Arial" font-size="14.00">A[1] = ReLU(Z[1])</text>
<text text-anchor="middle" x="564.5" y="-217.69" font-family="Arial" font-size="14.00">max(0, Z)</text>
<text text-anchor="middle" x="564.5" y="-202.69" font-family="Arial" font-size="14.00">(4×m)</text>
</g>
<!-- Z1&#45;&gt;A1 -->
<g id="edge4" class="edge">
<title>Z1&#45;&gt;A1</title>
<path fill="none" stroke="black" d="M427.19,-215.57C448.48,-216.48 471.61,-217.47 492.66,-218.36"/>
<polygon fill="black" stroke="black" points="492.68,-221.87 502.82,-218.8 492.98,-214.87 492.68,-221.87"/>
<text text-anchor="middle" x="465" y="-221.19" font-family="Times,serif" font-size="14.00">ReLU</text>
</g>
<!-- cache1 -->
<g id="node6" class="node">
<title>cache1</title>
<polygon fill="#f0f0f0" stroke="black" points="859.5,-212.39 719.5,-212.39 719.5,-174.39 865.5,-174.39 865.5,-206.39 859.5,-212.39"/>
<polyline fill="none" stroke="black" points="859.5,-212.39 859.5,-206.39 "/>
<polyline fill="none" stroke="black" points="865.5,-206.39 859.5,-206.39 "/>
<text text-anchor="middle" x="792.5" y="-197.19" font-family="Arial" font-size="14.00">Cache[1]</text>
<text text-anchor="middle" x="792.5" y="-182.19" font-family="Arial" font-size="14.00">(A[0], W[1], b[1], Z[1])</text>
</g>
<!-- Z1&#45;&gt;cache1 -->
<g id="edge5" class="edge">
<title>Z1&#45;&gt;cache1</title>
<path fill="none" stroke="gray" stroke-dasharray="1,5" d="M427.19,-196.89C451.28,-192.59 478.17,-188.51 503,-186.39 572.34,-180.44 651.37,-183.01 709.17,-186.6"/>
<polygon fill="gray" stroke="gray" points="709.13,-190.11 719.34,-187.26 709.59,-183.12 709.13,-190.11"/>
</g>
<!-- W1 -->
<g id="node4" class="node">
<title>W1</title>
<path fill="#ffe0e0" stroke="black" d="M185,-227.86C185,-230.5 167.97,-232.64 147,-232.64 126.03,-232.64 109,-230.5 109,-227.86 109,-227.86 109,-184.91 109,-184.91 109,-182.27 126.03,-180.13 147,-180.13 167.97,-180.13 185,-182.27 185,-184.91 185,-184.91 185,-227.86 185,-227.86"/>
<path fill="none" stroke="black" d="M185,-227.86C185,-225.23 167.97,-223.09 147,-223.09 126.03,-223.09 109,-225.23 109,-227.86"/>
<text text-anchor="middle" x="147" y="-210.19" font-family="Arial" font-size="14.00">W[1]: 4×3</text>
<text text-anchor="middle" x="147" y="-195.19" font-family="Arial" font-size="14.00">b[1]: 4×1</text>
</g>
<!-- W1&#45;&gt;Z1 -->
<g id="edge3" class="edge">
<title>W1&#45;&gt;Z1</title>
<path fill="none" stroke="black" stroke-dasharray="5,2" d="M185.14,-207.49C207.72,-208.15 237.52,-209.04 265.59,-209.87"/>
<polygon fill="black" stroke="black" points="265.74,-213.38 275.84,-210.17 265.95,-206.38 265.74,-213.38"/>
<text text-anchor="middle" x="230.5" y="-213.19" font-family="Times,serif" font-size="14.00">params</text>
</g>
<!-- A1&#45;&gt;cache1 -->
<g id="edge6" class="edge">
<title>A1&#45;&gt;cache1</title>
<path fill="none" stroke="gray" stroke-dasharray="1,5" d="M626.06,-213.88C651.57,-210.72 681.65,-207 709.12,-203.59"/>
<polygon fill="gray" stroke="gray" points="709.61,-207.06 719.11,-202.35 708.75,-200.11 709.61,-207.06"/>
</g>
<!-- Z2 -->
<g id="node7" class="node">
<title>Z2</title>
<path fill="#b3d9ff" stroke="black" d="M856,-306.39C856,-306.39 729,-306.39 729,-306.39 723,-306.39 717,-300.39 717,-294.39 717,-294.39 717,-280.39 717,-280.39 717,-274.39 723,-268.39 729,-268.39 729,-268.39 856,-268.39 856,-268.39 862,-268.39 868,-274.39 868,-280.39 868,-280.39 868,-294.39 868,-294.39 868,-300.39 862,-306.39 856,-306.39"/>
<text text-anchor="middle" x="792.5" y="-291.19" font-family="Arial" font-size="14.00">Z[2] = W[2]·A[1] + b[2]</text>
<text text-anchor="middle" x="792.5" y="-276.19" font-family="Arial" font-size="14.00">(1×m)</text>
</g>
<!-- A1&#45;&gt;Z2 -->
<g id="edge7" class="edge">
<title>A1&#45;&gt;Z2</title>
<path fill="none" stroke="black" d="M626.06,-239.07C653.9,-247.2 687.2,-256.93 716.6,-265.51"/>
<polygon fill="black" stroke="black" points="715.83,-268.93 726.41,-268.38 717.79,-262.21 715.83,-268.93"/>
<text text-anchor="middle" x="671.5" y="-263.19" font-family="Times,serif" font-size="14.00">matmul</text>
</g>
<!-- dZ1 -->
<g id="node17" class="node">
<title>dZ1</title>
<path fill="#d4edda" stroke="black" d="M2672,-230.89C2672,-230.89 2586,-230.89 2586,-230.89 2580,-230.89 2574,-224.89 2574,-218.89 2574,-218.89 2574,-189.89 2574,-189.89 2574,-183.89 2580,-177.89 2586,-177.89 2586,-177.89 2672,-177.89 2672,-177.89 2678,-177.89 2684,-183.89 2684,-189.89 2684,-189.89 2684,-218.89 2684,-218.89 2684,-224.89 2678,-230.89 2672,-230.89"/>
<text text-anchor="middle" x="2629" y="-215.69" font-family="Arial" font-size="14.00">dZ[1]</text>
<text text-anchor="middle" x="2629" y="-200.69" font-family="Arial" font-size="14.00">dZ = dA * (Z&gt;0)</text>
<text text-anchor="middle" x="2629" y="-185.69" font-family="Arial" font-size="14.00">(4×m)</text>
</g>
<!-- cache1&#45;&gt;dZ1 -->
<g id="edge19" class="edge">
<title>cache1&#45;&gt;dZ1</title>
<path fill="none" stroke="gray" stroke-dasharray="1,5" d="M855.34,-174.27C902.89,-161.26 970.47,-146.39 1031,-146.39 1031,-146.39 1031,-146.39 2393,-146.39 2452.24,-146.39 2517.5,-163.97 2564.18,-179.78"/>
<polygon fill="gray" stroke="gray" points="2563.26,-183.16 2573.85,-183.12 2565.54,-176.55 2563.26,-183.16"/>
<text text-anchor="middle" x="1692.5" y="-150.19" font-family="Times,serif" font-size="14.00">use cache</text>
</g>
<!-- A2 -->
<g id="node9" class="node">
<title>A2</title>
<path fill="#ffe5b3" stroke="black" d="M1089,-298.89C1089,-298.89 975,-298.89 975,-298.89 969,-298.89 963,-292.89 963,-286.89 963,-286.89 963,-257.89 963,-257.89 963,-251.89 969,-245.89 975,-245.89 975,-245.89 1089,-245.89 1089,-245.89 1095,-245.89 1101,-251.89 1101,-257.89 1101,-257.89 1101,-286.89 1101,-286.89 1101,-292.89 1095,-298.89 1089,-298.89"/>
<text text-anchor="middle" x="1032" y="-283.69" font-family="Arial" font-size="14.00">A[2] = Sigmoid(Z[2])</text>
<text text-anchor="middle" x="1032" y="-268.69" font-family="Arial" font-size="14.00">1/(1+e^(&#45;Z))</text>
<text text-anchor="middle" x="1032" y="-253.69" font-family="Arial" font-size="14.00">(1×m)</text>
</g>
<!-- Z2&#45;&gt;A2 -->
<g id="edge9" class="edge">
<title>Z2&#45;&gt;A2</title>
<path fill="none" stroke="black" d="M868.32,-282.66C895.09,-280.97 925.32,-279.06 952.39,-277.35"/>
<polygon fill="black" stroke="black" points="952.84,-280.83 962.6,-276.7 952.4,-273.84 952.84,-280.83"/>
<text text-anchor="middle" x="915.5" y="-284.19" font-family="Times,serif" font-size="14.00">Sigmoid</text>
</g>
<!-- cache2 -->
<g id="node10" class="node">
<title>cache2</title>
<polygon fill="#f0f0f0" stroke="black" points="1368.5,-291.39 1228.5,-291.39 1228.5,-253.39 1374.5,-253.39 1374.5,-285.39 1368.5,-291.39"/>
<polyline fill="none" stroke="black" points="1368.5,-291.39 1368.5,-285.39 "/>
<polyline fill="none" stroke="black" points="1374.5,-285.39 1368.5,-285.39 "/>
<text text-anchor="middle" x="1301.5" y="-276.19" font-family="Arial" font-size="14.00">Cache[2]</text>
<text text-anchor="middle" x="1301.5" y="-261.19" font-family="Arial" font-size="14.00">(A[1], W[2], b[2], Z[2])</text>
</g>
<!-- Z2&#45;&gt;cache2 -->
<g id="edge10" class="edge">
<title>Z2&#45;&gt;cache2</title>
<path fill="none" stroke="gray" stroke-dasharray="1,5" d="M868.21,-297.16C874.23,-297.92 880.21,-298.67 886,-299.39 980.92,-311.09 1005.74,-316.91 1101,-308.39 1139.93,-304.9 1182.63,-297.66 1218.5,-290.59"/>
<polygon fill="gray" stroke="gray" points="1219.31,-293.99 1228.43,-288.6 1217.94,-287.13 1219.31,-293.99"/>
</g>
<!-- W2 -->
<g id="node8" class="node">
<title>W2</title>
<path fill="#ffe0e0" stroke="black" d="M602.5,-313.86C602.5,-316.5 585.47,-318.64 564.5,-318.64 543.53,-318.64 526.5,-316.5 526.5,-313.86 526.5,-313.86 526.5,-270.91 526.5,-270.91 526.5,-268.27 543.53,-266.13 564.5,-266.13 585.47,-266.13 602.5,-268.27 602.5,-270.91 602.5,-270.91 602.5,-313.86 602.5,-313.86"/>
<path fill="none" stroke="black" d="M602.5,-313.86C602.5,-311.23 585.47,-309.09 564.5,-309.09 543.53,-309.09 526.5,-311.23 526.5,-313.86"/>
<text text-anchor="middle" x="564.5" y="-296.19" font-family="Arial" font-size="14.00">W[2]: 1×4</text>
<text text-anchor="middle" x="564.5" y="-281.19" font-family="Arial" font-size="14.00">b[2]: 1×1</text>
</g>
<!-- W2&#45;&gt;Z2 -->
<g id="edge8" class="edge">
<title>W2&#45;&gt;Z2</title>
<path fill="none" stroke="black" stroke-dasharray="5,2" d="M602.57,-291.57C630.84,-290.94 670.92,-290.05 706.89,-289.26"/>
<polygon fill="black" stroke="black" points="706.99,-292.76 716.91,-289.04 706.84,-285.76 706.99,-292.76"/>
<text text-anchor="middle" x="671.5" y="-294.19" font-family="Times,serif" font-size="14.00">params</text>
</g>
<!-- A2&#45;&gt;cache2 -->
<g id="edge11" class="edge">
<title>A2&#45;&gt;cache2</title>
<path fill="none" stroke="gray" stroke-dasharray="1,5" d="M1101.19,-272.39C1136.71,-272.39 1180.41,-272.39 1217.84,-272.39"/>
<polygon fill="gray" stroke="gray" points="1218.22,-275.89 1228.22,-272.39 1218.22,-268.89 1218.22,-275.89"/>
</g>
<!-- J -->
<g id="node12" class="node">
<title>J</title>
<path fill="#ffb3b3" stroke="black" d="M1392,-230.89C1392,-230.89 1211,-230.89 1211,-230.89 1205,-230.89 1199,-224.89 1199,-218.89 1199,-218.89 1199,-189.89 1199,-189.89 1199,-183.89 1205,-177.89 1211,-177.89 1211,-177.89 1392,-177.89 1392,-177.89 1398,-177.89 1404,-183.89 1404,-189.89 1404,-189.89 1404,-218.89 1404,-218.89 1404,-224.89 1398,-230.89 1392,-230.89"/>
<text text-anchor="middle" x="1301.5" y="-215.69" font-family="Arial" font-size="14.00">Cost J</text>
<text text-anchor="middle" x="1301.5" y="-200.69" font-family="Arial" font-size="14.00">&#45;1/m Σ[y·log(a) + (1&#45;y)·log(1&#45;a)]</text>
<text text-anchor="middle" x="1301.5" y="-185.69" font-family="Arial" font-size="14.00">scalar</text>
</g>
<!-- A2&#45;&gt;J -->
<g id="edge12" class="edge">
<title>A2&#45;&gt;J</title>
<path fill="none" stroke="black" d="M1101.19,-255.05C1127.83,-248.28 1159.06,-240.34 1188.81,-232.78"/>
<polygon fill="black" stroke="black" points="1190,-236.09 1198.83,-230.23 1188.27,-229.3 1190,-236.09"/>
<text text-anchor="middle" x="1150" y="-254.19" font-family="Times,serif" font-size="14.00">compare</text>
</g>
<!-- dZ2 -->
<g id="node14" class="node">
<title>dZ2</title>
<path fill="#d4edda" stroke="black" d="M1929,-230.89C1929,-230.89 1790,-230.89 1790,-230.89 1784,-230.89 1778,-224.89 1778,-218.89 1778,-218.89 1778,-189.89 1778,-189.89 1778,-183.89 1784,-177.89 1790,-177.89 1790,-177.89 1929,-177.89 1929,-177.89 1935,-177.89 1941,-183.89 1941,-189.89 1941,-189.89 1941,-218.89 1941,-218.89 1941,-224.89 1935,-230.89 1929,-230.89"/>
<text text-anchor="middle" x="1859.5" y="-215.69" font-family="Arial" font-size="14.00">dZ[2]</text>
<text text-anchor="middle" x="1859.5" y="-200.69" font-family="Arial" font-size="14.00">dZ = dA * σ(Z) * (1&#45;σ(Z))</text>
<text text-anchor="middle" x="1859.5" y="-185.69" font-family="Arial" font-size="14.00">(1×m)</text>
</g>
<!-- cache2&#45;&gt;dZ2 -->
<g id="edge15" class="edge">
<title>cache2&#45;&gt;dZ2</title>
<path fill="none" stroke="gray" stroke-dasharray="1,5" d="M1374.85,-266.52C1465.23,-258.77 1624.51,-243.67 1760,-223.39 1762.65,-222.99 1765.34,-222.57 1768.06,-222.13"/>
<polygon fill="gray" stroke="gray" points="1768.67,-225.58 1777.96,-220.49 1767.52,-218.68 1768.67,-225.58"/>
<text text-anchor="middle" x="1551" y="-259.19" font-family="Times,serif" font-size="14.00">use cache</text>
</g>
<!-- Y -->
<g id="node11" class="node">
<title>Y</title>
<path fill="#e8f4f8" stroke="black" d="M1052.5,-227.89C1052.5,-227.89 1011.5,-227.89 1011.5,-227.89 1005.5,-227.89 999.5,-221.89 999.5,-215.89 999.5,-215.89 999.5,-186.89 999.5,-186.89 999.5,-180.89 1005.5,-174.89 1011.5,-174.89 1011.5,-174.89 1052.5,-174.89 1052.5,-174.89 1058.5,-174.89 1064.5,-180.89 1064.5,-186.89 1064.5,-186.89 1064.5,-215.89 1064.5,-215.89 1064.5,-221.89 1058.5,-227.89 1052.5,-227.89"/>
<text text-anchor="middle" x="1032" y="-212.69" font-family="Arial" font-size="14.00">Y</text>
<text text-anchor="middle" x="1032" y="-197.69" font-family="Arial" font-size="14.00">(Labels)</text>
<text text-anchor="middle" x="1032" y="-182.69" font-family="Arial" font-size="14.00">1×m</text>
</g>
<!-- Y&#45;&gt;J -->
<g id="edge13" class="edge">
<title>Y&#45;&gt;J</title>
<path fill="none" stroke="black" d="M1064.74,-201.74C1095.42,-202.09 1143.75,-202.63 1188.68,-203.13"/>
<polygon fill="black" stroke="black" points="1188.77,-206.63 1198.8,-203.24 1188.84,-199.63 1188.77,-206.63"/>
<text text-anchor="middle" x="1150" y="-206.19" font-family="Times,serif" font-size="14.00">labels</text>
</g>
<!-- dAL -->
<g id="node13" class="node">
<title>dAL</title>
<path fill="#d4edda" stroke="black" d="M1595,-223.39C1595,-223.39 1507,-223.39 1507,-223.39 1501,-223.39 1495,-217.39 1495,-211.39 1495,-211.39 1495,-197.39 1495,-197.39 1495,-191.39 1501,-185.39 1507,-185.39 1507,-185.39 1595,-185.39 1595,-185.39 1601,-185.39 1607,-191.39 1607,-197.39 1607,-197.39 1607,-211.39 1607,-211.39 1607,-217.39 1601,-223.39 1595,-223.39"/>
<text text-anchor="middle" x="1551" y="-208.19" font-family="Arial" font-size="14.00">dA[2] = ∂J/∂A[2]</text>
<text text-anchor="middle" x="1551" y="-193.19" font-family="Arial" font-size="14.00">(1×m)</text>
</g>
<!-- J&#45;&gt;dAL -->
<g id="edge21" class="edge">
<title>J&#45;&gt;dAL</title>
<path fill="none" stroke="red" stroke-width="2" d="M1404.24,-204.39C1431.42,-204.39 1460.07,-204.39 1484.7,-204.39"/>
<polygon fill="red" stroke="red" stroke-width="2" points="1485,-207.89 1495,-204.39 1485,-200.89 1485,-207.89"/>
<text text-anchor="middle" x="1449.5" y="-208.19" font-family="Times,serif" font-size="14.00">∂J/∂A[L]</text>
</g>
<!-- dAL&#45;&gt;dZ2 -->
<g id="edge14" class="edge">
<title>dAL&#45;&gt;dZ2</title>
<path fill="none" stroke="black" d="M1607.15,-204.39C1651.75,-204.39 1715.46,-204.39 1767.58,-204.39"/>
<polygon fill="black" stroke="black" points="1767.84,-207.89 1777.84,-204.39 1767.84,-200.89 1767.84,-207.89"/>
<text text-anchor="middle" x="1692.5" y="-208.19" font-family="Times,serif" font-size="14.00">Sigmoid_backward</text>
</g>
<!-- grads2 -->
<g id="node15" class="node">
<title>grads2</title>
<polygon fill="#c8e6c9" stroke="black" points="2256,-230.89 2099,-230.89 2095,-226.89 2095,-177.89 2252,-177.89 2256,-181.89 2256,-230.89"/>
<polyline fill="none" stroke="black" points="2252,-226.89 2095,-226.89 "/>
<polyline fill="none" stroke="black" points="2252,-226.89 2252,-177.89 "/>
<polyline fill="none" stroke="black" points="2252,-226.89 2256,-230.89 "/>
<text text-anchor="middle" x="2175.5" y="-215.69" font-family="Arial" font-size="14.00">dW[2] = 1/m·dZ[2]·A[1]ᵀ</text>
<text text-anchor="middle" x="2175.5" y="-200.69" font-family="Arial" font-size="14.00">db[2] = 1/m·Σ dZ[2]</text>
<text text-anchor="middle" x="2175.5" y="-185.69" font-family="Arial" font-size="14.00">dA[1] = W[2]ᵀ·dZ[2]</text>
</g>
<!-- dZ2&#45;&gt;grads2 -->
<g id="edge16" class="edge">
<title>dZ2&#45;&gt;grads2</title>
<path fill="none" stroke="black" d="M1941.36,-204.39C1985.29,-204.39 2039.7,-204.39 2084.91,-204.39"/>
<polygon fill="black" stroke="black" points="2085,-207.89 2095,-204.39 2085,-200.89 2085,-207.89"/>
<text text-anchor="middle" x="2018" y="-208.19" font-family="Times,serif" font-size="14.00">linear_backward</text>
</g>
<!-- dA1 -->
<g id="node16" class="node">
<title>dA1</title>
<path fill="#d4edda" stroke="black" d="M2407,-223.39C2407,-223.39 2377,-223.39 2377,-223.39 2371,-223.39 2365,-217.39 2365,-211.39 2365,-211.39 2365,-197.39 2365,-197.39 2365,-191.39 2371,-185.39 2377,-185.39 2377,-185.39 2407,-185.39 2407,-185.39 2413,-185.39 2419,-191.39 2419,-197.39 2419,-197.39 2419,-211.39 2419,-211.39 2419,-217.39 2413,-223.39 2407,-223.39"/>
<text text-anchor="middle" x="2392" y="-208.19" font-family="Arial" font-size="14.00">dA[1]</text>
<text text-anchor="middle" x="2392" y="-193.19" font-family="Arial" font-size="14.00">(4×m)</text>
</g>
<!-- grads2&#45;&gt;dA1 -->
<g id="edge17" class="edge">
<title>grads2&#45;&gt;dA1</title>
<path fill="none" stroke="black" d="M2256.07,-204.39C2289.96,-204.39 2327.81,-204.39 2354.78,-204.39"/>
<polygon fill="black" stroke="black" points="2354.91,-207.89 2364.91,-204.39 2354.91,-200.89 2354.91,-207.89"/>
<text text-anchor="middle" x="2310.5" y="-208.19" font-family="Times,serif" font-size="14.00">propagate</text>
</g>
<!-- update2 -->
<g id="node20" class="node">
<title>update2</title>
<path fill="#80cbc4" stroke="black" d="M3355,-284.39C3355,-284.39 3229,-284.39 3229,-284.39 3223,-284.39 3217,-278.39 3217,-272.39 3217,-272.39 3217,-258.39 3217,-258.39 3217,-252.39 3223,-246.39 3229,-246.39 3229,-246.39 3355,-246.39 3355,-246.39 3361,-246.39 3367,-252.39 3367,-258.39 3367,-258.39 3367,-272.39 3367,-272.39 3367,-278.39 3361,-284.39 3355,-284.39"/>
<text text-anchor="middle" x="3292" y="-269.19" font-family="Arial" font-size="14.00">W[2] = W[2] &#45; α·dW[2]</text>
<text text-anchor="middle" x="3292" y="-254.19" font-family="Arial" font-size="14.00">b[2] = b[2] &#45; α·db[2]</text>
</g>
<!-- grads2&#45;&gt;update2 -->
<g id="edge24" class="edge">
<title>grads2&#45;&gt;update2</title>
<path fill="none" stroke="black" d="M2233.89,-230.92C2276.34,-248.14 2336.08,-267.39 2391,-267.39 2391,-267.39 2391,-267.39 2923.5,-267.39 3020.54,-267.39 3132,-266.68 3206.48,-266.11"/>
<polygon fill="black" stroke="black" points="3206.77,-269.6 3216.74,-266.03 3206.71,-262.6 3206.77,-269.6"/>
<text text-anchor="middle" x="2629" y="-271.19" font-family="Times,serif" font-size="14.00">α (learning rate)</text>
</g>
<!-- dA1&#45;&gt;dZ1 -->
<g id="edge18" class="edge">
<title>dA1&#45;&gt;dZ1</title>
<path fill="none" stroke="black" d="M2419.05,-204.39C2453.67,-204.39 2516.02,-204.39 2563.63,-204.39"/>
<polygon fill="black" stroke="black" points="2563.86,-207.89 2573.86,-204.39 2563.86,-200.89 2563.86,-207.89"/>
<text text-anchor="middle" x="2494.5" y="-208.19" font-family="Times,serif" font-size="14.00">ReLU_backward</text>
</g>
<!-- grads1 -->
<g id="node18" class="node">
<title>grads1</title>
<polygon fill="#c8e6c9" stroke="black" points="3003,-230.89 2846,-230.89 2842,-226.89 2842,-177.89 2999,-177.89 3003,-181.89 3003,-230.89"/>
<polyline fill="none" stroke="black" points="2999,-226.89 2842,-226.89 "/>
<polyline fill="none" stroke="black" points="2999,-226.89 2999,-177.89 "/>
<polyline fill="none" stroke="black" points="2999,-226.89 3003,-230.89 "/>
<text text-anchor="middle" x="2922.5" y="-215.69" font-family="Arial" font-size="14.00">dW[1] = 1/m·dZ[1]·A[0]ᵀ</text>
<text text-anchor="middle" x="2922.5" y="-200.69" font-family="Arial" font-size="14.00">db[1] = 1/m·Σ dZ[1]</text>
<text text-anchor="middle" x="2922.5" y="-185.69" font-family="Arial" font-size="14.00">dA[0] = W[1]ᵀ·dZ[1]</text>
</g>
<!-- dZ1&#45;&gt;grads1 -->
<g id="edge20" class="edge">
<title>dZ1&#45;&gt;grads1</title>
<path fill="none" stroke="black" d="M2684.15,-204.39C2725.49,-204.39 2783.39,-204.39 2831.64,-204.39"/>
<polygon fill="black" stroke="black" points="2831.78,-207.89 2841.78,-204.39 2831.78,-200.89 2831.78,-207.89"/>
<text text-anchor="middle" x="2765" y="-208.19" font-family="Times,serif" font-size="14.00">linear_backward</text>
</g>
<!-- update1 -->
<g id="node19" class="node">
<title>update1</title>
<path fill="#80cbc4" stroke="black" d="M3355,-228.39C3355,-228.39 3229,-228.39 3229,-228.39 3223,-228.39 3217,-222.39 3217,-216.39 3217,-216.39 3217,-202.39 3217,-202.39 3217,-196.39 3223,-190.39 3229,-190.39 3229,-190.39 3355,-190.39 3355,-190.39 3361,-190.39 3367,-196.39 3367,-202.39 3367,-202.39 3367,-216.39 3367,-216.39 3367,-222.39 3361,-228.39 3355,-228.39"/>
<text text-anchor="middle" x="3292" y="-213.19" font-family="Arial" font-size="14.00">W[1] = W[1] &#45; α·dW[1]</text>
<text text-anchor="middle" x="3292" y="-198.19" font-family="Arial" font-size="14.00">b[1] = b[1] &#45; α·db[1]</text>
</g>
<!-- grads1&#45;&gt;update1 -->
<g id="edge22" class="edge">
<title>grads1&#45;&gt;update1</title>
<path fill="none" stroke="black" d="M3003.24,-205.47C3063.33,-206.29 3145.55,-207.41 3206.72,-208.24"/>
<polygon fill="black" stroke="black" points="3206.69,-211.74 3216.73,-208.37 3206.78,-204.74 3206.69,-211.74"/>
<text text-anchor="middle" x="3080" y="-210.19" font-family="Times,serif" font-size="14.00">α (learning rate)</text>
</g>
<!-- update1&#45;&gt;W1 -->
<g id="edge23" class="edge">
<title>update1&#45;&gt;W1</title>
<path fill="none" stroke="green" stroke-width="2" d="M3235.91,-190.35C3207.27,-180.96 3171.53,-170.05 3139,-162.39 2884.34,-102.42 2813.51,-125.84 2552,-118.39 1736.78,-95.14 1529.58,-49.74 717,-119.39 521.98,-136.1 292.31,-178.17 195.16,-197.01"/>
<polygon fill="green" stroke="green" stroke-width="2" points="194.22,-193.62 185.08,-198.97 195.56,-200.49 194.22,-193.62"/>
<text text-anchor="middle" x="1551" y="-88.19" font-family="Times,serif" font-size="14.00">update</text>
</g>
<!-- update2&#45;&gt;W2 -->
<g id="edge25" class="edge">
<title>update2&#45;&gt;W2</title>
<path fill="none" stroke="green" stroke-width="2" d="M3216.87,-265.79C3192.62,-262.31 3167.25,-254.29 3149,-237.39 3136.82,-226.1 3150.72,-213.15 3139,-201.39 3097.28,-159.53 3069.29,-175.09 3011,-165.39 2596.2,-96.35 1539.11,-114.15 1119,-132.39 939.9,-140.16 879.04,-88.7 717,-165.39 691.01,-177.69 648.76,-239.81 626,-257.39 621.39,-260.95 616.37,-264.41 611.27,-267.68"/>
<polygon fill="green" stroke="green" stroke-width="2" points="609.34,-264.75 602.66,-272.98 613.01,-270.71 609.34,-264.75"/>
<text text-anchor="middle" x="1859.5" y="-121.19" font-family="Times,serif" font-size="14.00">update</text>
</g>
</g>
</svg>
